<svg xmlns="http://www.w3.org/2000/svg" width="466" height="429" viewBox="0 0 466 429"><path fill="#c8c8a0" d="M0 0h466v114.64c-7.262.635-12.435.333-19.571-1.179-3.583-.758-7.452-1.025-10.984-2.116-1.055-3.462-1.132-4.439-3.13-7.452-4.786 6.02-14.041 4.04-19.54.143-2.855-2.024-3.92-2.6-7.346-3.266-2.29-2.97-4.544-7.68-7.006-11.245-3.143.117-5.411-.393-8.601.688.715 1.228.733 1.625.621 3.047-.159 3.9 1.214 5.337 3.63 8.203 1.099 1.302 3.74 3.168 4.462 4.393 1.73 2.937.256 4.073 2.345 7.413.917-1.794 2.14-5.092 4.615-4.414 2.092 1.8 1.425 6.378.617 8.74l2.478 2.526c4.92-1.699 6.317-.55 10.716-1.226 4.061-2.805 6.976-8.73 12.498-11.191.3 4.373-.108 3.408-.41 6.745 1.15.062 2.107.099 3.252.288l-.047 3.419c2.89.2 7.472.082 9.841 1.531.523.32 1.521 1.583 2.143 2.154.173 1.652.268 2.848.294 4.504.869.292 2.151.605 2.447 1.534.633 1.983-1.294 4.255-2.003 6.025-.32.8-.55 1.806-.744 2.61-.128 1.126-.23 2.32-.472 3.419-1.009.015-2.218.067-3.208.016-.793-.015-1.483-.073-2.257.112-.016 1.294-.02 3.47-.252 4.738-1.655 2.332-2.655 2.153-5.575 2.742-1.478 1.35-2.073 2.87-3.283 4.5-1.54.207-3.408.43-4.92.758-.804 2.195-1.675 5.868-4.724 3.845l-.223.007c-1.404 2.05-2.29 2.695-4.742 1.9-4.01.355-6.543 1.402-7.012 5.612-4.588 2.338-8.7 3.101-13.501 4.761-1.49.515-3.662 2.657-4.866 3.068-3.153 1.075-6.606 2.098-9.786 3.186-1.514.386-3.644.482-5.07.97-2.413.825-4.043 2.69-6.63 3.286-9.085 2.096-6.448-5.212-7.751-6.67-.684-.129-1.008.002-1.68.156l-.282-.235c.308-.88.75-.738.963-1.106.956-1.649-.841-4.812-1.633-6.195.522-3.95 1.008-6.42-1.626-9.79-1.376-1.762-3.107-3.32-4.308-5.206-1.541-2.42-2.18-5.5-4.136-7.64-2.064-2.256-5.422-3.13-7.076-5.8-2.202-3.558-.964-8.01-2.726-11.75-2.099-4.454-4.997-4.245-7.412-7.28-1.047-1.315-1.108-3.158-1.904-4.624-1.111-2.046-8.606-13.254-10.359-13.479-1.337-.17-2.68.885-3.834 1.443-1.099-.358-2.185-.693-3.257-1.122 2.732 4.89 7.334 16.917 11.727 20.223l-1.167 1.774c1.733 6.851 4.457 3.88 7.083 8.988 2.394 4.658 1.474 9.708 2.621 15.133 12.415 8.219 5.774 9.767 12.102 18.755.1-1.062.082-2.068.602-2.966.65-.33.286-.261 1.16.015 1.024 1.292-.48 2.162-.125 3.42 3.94 2.193 7.353 4.319 10.335 7.827 1.679 1.976 7.702 6.243 6.966 8.892-.774.946-1.283 1.019-1.432 1.885 6.444 6.834 5.06 7.235 13.805 3.658 1.056.298 2.18.573 3.182 1.008.818-.473 2.787-1.636 3.592-1.889 4.57-1.42 9.558-.836 14.128-2.43 1.748-.61 4.276-2.623 6.062-2.284 2.127.404.524 3.842.667 5.099.13 1.139.956 2.195.71 3.29-.508.452-.69.583-1.233.953-.81 1.765-.845 3.843-1.68 5.683-1.138 2.509-3.218 5.058-4.413 7.39-4.83 9.43-8.227 16.619-16.005 24.086-5.073 4.872-7.705 5.79-12.899 9.377-4.323 2.986-12.507 12.977-15.307 17.647-.935 1.836-1.182 2.433-3.375 2.584-2.393 1.137-3.234 3.106-3.382 5.666.102 2.513-.239 2.91-2.592 3.841-1.18 1.584-3.292 6.354-3.177 8.46.07 1.318 2.506 3.14 3.615 4.1-.43.978-.997 2.97-1.341 4.064 1.05-.184 2.006-.565 2.87.131l-.085.503c-.766 1.04-1.545 1.432-2.629 2.136.305 1.963 1.754 7.654 3.312 9.041.87.775 2.15 1.298 2.834 2.466.275 1.605-.039 4.186-.059 5.936-.025 2.271.163 4.404.228 6.648.09 3.125 1.077 5.902 1.348 8.84.134 1.471-1.207 4.219-1.958 5.481-3.886 6.529-8.819 7.043-14.871 10.303-2.64 1.747-4.88 4.325-7.286 6.337-2.77 2.315-5.928 4.097-7.675 7.325 1.707 1.98 2.045 3.218 2.597 5.642.626.376 1.352.665 1.641 1.224-.508 1.505-.484 1.414-.053 2.972.487 1.766.134 3.676.217 5.524.044.952.013 3.568-.298 4.373-1.524 3.943-6.951 4.692-10.328 6.28-1.9.893-3.132 1.716-4.73 2.8.689.547 1.45 1.093 1.705 1.995.772 2.75-1.27 8.372-2.42 10.881-1.196 2.61-4.784 4.151-6.685 6.939-.888 1.301-2.99 5.06-3.812 5.95-5.142 5.56-12.672 12.252-19.693 15.134-.615.253-2.966.304-3.903.553-1.823.485-4.155 1.528-5.93 1.645-3.182.21-6.45-.437-9.683-.408-2.728.024-4.754 1.13-7.193 1.61-3.523.692-5.793 1.333-9.21 2.386-1.014-.34-7.488-3.802-7.86-4.515.527-2.103.068-2.24-1.14-3.933-.564-.792-1.182-1.591-1.769-2.371 1.402-.765 1.905-1.093 3.168-2.069-.715-4.293-3.432-5.665-4.552-8.595-2.66-6.957-4.291-9.917-9.672-15.024-2.972-4.008-3.664-10.177-4.764-14.769-1.087-4.543-1.663-8.455-1.06-12.879-3.633-4.27-6.42-10.464-9.156-15.348-1.19-2.124-4.013-5.95-4.807-7.912-.778-1.924-.337-8.98.16-11.133.37-1.605 1.354-4.645 1.863-6.456.667-2.368 1.376-5.198 2.637-7.35 1.263-2.318 4.067-3.817 5.123-6.23 1.193-2.724.553-5.364-.674-7.904a101 101 0 0 1-3.235-7.402c.801-.785 1.763-1.634 2.597-2.403-2.004-3.387-3.658-8.169-5.33-11.801-1.193-2.595-1.645-5.355-3.278-7.887-3.018-4.68-7.428-7.995-10.997-12.2-2.163-2.571-3.59-5.862-4.945-8.913.894-.48 1.968-.956 2.895-1.397.245-2.4-.518-4.783 1.521-6.252l.17-.12.003-.436c-.593-.41-.714-.464-1.216-1.004-.14-1.167 1.376-2.53 1.667-3.57.632-2.265.953-4.818 1.441-7.162-5.639-7.212-7.153-7.185-16.158-5.352-10.996 2.238-3.921-12.43-17.811-10.704-7.804.97-7.413.304-14.622 4.207-1.14 1.634-3.064 1.015-4.877 1.302-1.32.266-2.787.606-4.11.71-.034 1.087-.105 2.287-.047 3.364-1.668-.001-3.895.243-5.119-.79l-.367-.874c-3.879-1.673-10.277-1.774-14.417-1.3-4.563.524-8.887 3.357-13.228 4.095-7.759-2.794-10.781-6.782-17.288-11.328-2.737-1.912-6.692-3.926-9.711-5.628-.844-1.812-2.999-8.24-3.609-9.148-2.117-3.156-7.928-9.14-11.576-9.96-.557-.802-1.176-1.704-1.801-2.444-1.615-1.84-4.107-3.534-3.93-6.321.333-5.224 1.298-6.299-3.368-9.675 5.357-4.233 4.574-8.718 7.462-15.205-2.552-.706-2.233-2.385-1.775-4.696.43-.471.434-.492.74-1.057-.162-.938-.615-1.207-1.298-2.02.337-2.26.753-3.145 1.707-5.168-2.154-1.86-2.53-2.41-5.304-3.247.93-5.204 2.501-7.232 4.9-11.722 2.227-4.164 3.487-5.621 6.817-8.86.293-1.418 1.34-5.652 2.052-6.775.528-.832 3.148-2.506 4.272-3.819 1.773-2.071 2.21-3.888 3.962-5.782 8.488-2.343 12.579-4.647 17.46-12.199-4.41-4.53 2.554-10.493 3.236-14.615-.005-1.03-.103-2.18.222-3.127 1.048-.895 3.847-.6 4.748.414l.504.31c2.587-.11 5.41-2.484 6.818-4.599.901-1.354 3.14-4.989 3.206-6.532l-.76-1.167c-.948-1.013-2.02-.567-3.012-2.371-.579-.906-2.397-2.156-3.299-2.829-1.378.238-3.107.581-4.467.67-3.293 2.186-6.686-1.194-3.35-3.953-.103-1.24-.167-2.245-.422-3.467l-.505-.328c-3.687 1.666-6.343-2.098-2.444-4.611 3.505-3.21 4.47-8.756 3.045-13.164-2.446-2.902-1.943-5.856-.257-9.032 1.087-2.05 1.589-2.143 3.67-2.744.907.295 1.523.596 2.38.994 1.895.37 7.102 1.74 8.618.529a2.489 2.489 0 0 1 4.742.238c.902 2.027 3.8.921 5.147-.083.581-.716.758-.8 1.53-1.342l.387.127c3.661 1.182 5.601-.214 7.001 2.31.917.269 1.269-.23 1.977-.737.231-.51 1.132-1.454 1.416-2.178.56-1.426 1.072-3.414 1.649-4.793.78-1.87-.106-2.777-1.103-4.793-3.923-2.645-2.455-1.909-2.053-5.777-1.162-.24-9.056-.07-10.803-.078L89.786.663H32.538C22.034.662 10.417.424 0 .802zm204.707 16.206c1.11.223 1.604.151 2.72.097 4.742-.749 4.38 4.674 8.337 7.235l.804.304c1.694-.428 4.118-.17 5.62.73 4.601 1.827 1.691 3.582 5.982 5.049 3.633.619 3.185 1.155 3.262 4.707-.637 2.315-2.534 3.68-4.949 2.99-.54.637-.733 1.075-.42 1.883l.33.158c1.08-.039 2.179-.077 3.034.72.532.498.836 1.192.843 1.92.001 2.119-1.867 2.669-3.65 2.174l-.053.394c-.173 4.128-3.032 3.726-6.403 4.96-.09 1.951-.024 5.587-1.446 6.938-.412.393-.966.6-1.534.573-1.148-.055-2.131-1.306-2.597-2.254l-.571-.508c-1.282-1.147-1.446-1.051-3.141-.793-1.352.202-2.993-.116-4.291-.536-1.865-.604-1.884-2.295-2.784-3.464-1.231.395-3.97 1.356-4.511-.808-.159-1.054-.05-3.04 1.338-3.193 1.673-.184 2.846.9 4.213 1.402-.19-1.595-.074-3.956-.044-5.617l4.939.14.045 3.037c.376.776.768 1.632 1.186 2.378 2.427 1.473 3.002-.119 2.933-2.28 1.623-3.256 2.71-3.407 6.161-3.59a104 104 0 0 0-3.613-2.19l-.947-2.194c-2.44-.934-3.851-1.87-6.133-2.97-3.486 1.928-4.758 2.713-6.6-1.77-.626-1.523-.763-1.999-.674-3.697-2.772 1.51-4.349.85-4.735-2.47-.42-.458-1.725-1.498-2.45-2.24-3.673 4.56-3.895-.641-7.632 1.188l1.002.534c3.033.888 2.558 3.545.196 5 2.742 2.755 2.227 8.338.647 11.566-1.39 1.807-2.814 2.889-4.923 3.817-.817-.376-1.613-.721-2.394-1.168l-2.4.078c-.074-1.24-.375-3.965.15-5.033.15-.306.443-.27.89-.385.597-.085.585-.088 1.137-.336.98-1.166 1.207-1.827.22-3.096-2.154-2.005-2.613-4.614.768-5.418l.654-.394c-1.789-2.043-1.458-2.817-.206-5.019-.52-2.13-.66-3.124 1.452-4.183 1.157-.706 2.041-1.302 3.323-1.759.723.732 1.387 1.563 2.315 1.918l.282-.155c-.168-1.143-1.696-2.87-2.63-3.464-1.675-1.067-1.785.546-4.143-.513l-.435.112c-.515 1.329-.057 1.352-.829 2.269-2.876 1.022-5.52 2.087-8.248 3.455-.344.172-1.244-.16-1.624-.29-1.36.494-1.366 1.52-3.018 1.36-1.573-.154-3.045-.769-4.574-1.017-.923-.121-1.819-.15-2.75-.197-.63-.054-1.557-.351-2.202-.532-1.023.171-1.358.055-2.06.663-.755 2.15.15 2.298-1.225 4.476-1.293 2.092-2.075 1.843-3.457 3.345-1.339 3.115-2.224 2.632-5.116 1.924-1.294 1.53-1.608 2.32-3.71 2.355-1.931.653-2.69 1.976-4.122 3.297.527 4.635 1.146 7.742-3.47 10.825-.662 2.867-.902 4.644-4.428 3.24l-.513.217c-.126 2.973-3.209 3.972-5.767 4.062-1.258.044-1.437-1.341-2.901-1.502-.532.302-.683.768-.976 1.326-1.278.731-2.15.19-3.48-.24l-3.07 1.196c-.44-.295-1.179-.823-1.624-1.031l-.275-.016c.17 1.419.148 1.687-.003 3.092-.768.776-.79.559-.975 1.452 1.204 1.666 6.829 1.804 8.366.589 2.434-2.956 5.317-2.61 5.515 1.395 3.888.24 8.763-3.556 12.774-4.634 2.123-.571 4.613-2.7 7.27-2.655 7.623-1.078 13.692-2.983 21.331-.886 1.888-.664 2.843-1.078 4.573-2.121.237.093 1.449.549 1.587.533 1.71-.191 7.943.393 9.143.173 4.914-.9 3.821-2.305 9.15-1.227l.891 2.019c1.084-.557 3.045-1.937 3.815-.505-.214 1.985-2.149 3.433-3.593 4.65 8.6 6.25-1.197 7.867-1.643 10.805l.294.482c3.028.582 3.666-1.39 5.293 2.78 4.205 1.895 6.981 2.425 11.643 2.329 1.398-.029 3.95.844 5.317 1.22 4.412 1.218 4.627 2.24 6.005 6.158 8.592 2.08 8.793.542 16.997 5.95 2.596-.532 3.553-.974 5.46-2.962-.412-1.674-1.642-5.036-.507-6.426 3.729-4.564 11.722-5.43 16.736-2.78l.825 1.97c1.053.256 2.07.46 3.144.61 3.642.515 4.854-.098 7.311 2.865 1.697-.167 6.366.14 7.001-.177 1.788-1.475 4.116-2.306 4.827.665.92 1.665 3.017 2.067 4.711 1.427 2.25-1.085 2.085-.047 3.891-.313.5-.74.348-1.35.385-2.367 1.608-.044 2.489-.049 4.08.105 3.074.551 5.548.942 8.642.197 1.884-.302 2.815-.317 4.743-.33l-.045 2.855c2.165-.294 6.096.415 7.699-1.13 2.06-1.984 5.08-9.73 5.098-12.284-.74-3.163-.93-5.213 2.903-5.078-.002-1.356-.311-3.593-.666-4.94-.223-.845-.48-.81-1.2-1.213-.316-.699-.362-1.576-.459-2.352l-.337-.367c-1.408-.051-2.099.083-2.88 1.268-.912.777-1.833 1.443-2.673 2.284-1.963.348-4.835.76-6.717 1.188l.87 1.18c1.117.292 5.467-1.908 6.455-1.115 5.245 4.216-7.171 8.205-10.82 6.277-3.455-1.826-1.383-5.855 1.202-6.741-.09-.634-.266-1.205-.436-1.82-2.308-2.326-3.477-2.157-6.567-1.822l-2.594.215c-2.434 3.289-6.31 1.052-9.06-.11l-2.09-.262c-1.434.32-1.704 2.503-3.403 2.777l-.234-.346c-.064-1.223.129-1.8.39-2.984-1.902-.198-2.734-.234-4.638-.15-.062-1.64-.231-4.132.182-5.682.075-.5.076-.465-.057-.953-.962-.677-1.706-.33-2.9-.6l-.276-.067-.687-.009c-.908-1.565-3.31-3.566-1.32-5.773.268-.297.154-.387.138-.782-.775-1.4-1.835-1.969-3.143-2.941-.155-1.207-.207-3.188-.279-4.45l-.474-.308c-.902.206-1.913 1.112-2.83 1.69-.855-.491-1.424-.916-2.393-1.052l-.334.298c.18.537.57.795 1 1.184.224 1.145-1.208 2.327-2.25 2.508-3 .521-4.202-1.584-6.055-3.051 1.122 2.772 1.38 2.906 3.173 5.234 1.202 1.56 5.11 4.62 5.448 5.916-.466.87-.824 1.37-1.402 2.175-1.098 1.146-1.722 1.78-3.354 1.936-1.283 1.414-1.767 2.382-3.328 3.844 5.932-.532 2.037 7.914-.935 4.798-1.135-1.189-1.062-2.823-.27-4.3l-.72-.184c-3.13 2.969-5.509 1.257-4.909-2.902q-.422.02-.844.028c-3.625.062-3.106-1.63-3.113-4.628-.56-.099-1.249.25-1.906.354l-.337-.252c-.216-1.643.723-1.206.041-3.015-.623-1.061-.54-2.01-.459-3.195l-.158-.373c-2.66.585-4.09-.263-4.515-2.982-.665-3.548-.219-5.268.415-8.75q-.754-.72-1.583-1.356c-1.043-.784-4.609-3.483-5.682-3.325-2.385 1.829-3.322.95-5.075-1.07l-.714-.412c-2.935 1.119-3.778.125-4.659-2.571-1.422-4.238-6.698 1.348-5.104-5.74-2.2-.084-2.521-.184-3.61-2.086-.501-.271-.505-.241-1.08-.32-.619.405-1.143.813-1.822.364-.484-1.922-.996-1.973-2.635-3.239-1.07-.362-.858-.49-1.638-.155-1.73 3.645-1.016 3.378-1.38 7.091m118.38-6.474c4.353-1.135 4.955-.887 9.361-.265 1.04-1.15 2.177-2.468 3.248-3.57-.999-1.293-1.296-2.037-1.539-3.702-.08-.06-.42-.33-.498-.358-5.84 1.912-7.98 1.848-13.335 5.289 1.086 1.214 1.485 1.594 2.762 2.606m32.257 18.47c-1.282-2.658-1.932-4.583-4.968-5.692-4.573-1.673-8.457-5.43-12.922-7.053-3.96-1.439-5.3-2.076-8.423-4.86-1.282 1.36-1.748 1.884-3.721 1.518-2.629-.487-5.473 1.185-7.72 2.345-3.817 1.97-5.243 1.672-5.277-2.748-1.375-.35-4.801-.83-4.755-2.522 1.009-1.289 3.805-2.122 5.423-2.72-2.384.014-5.358.493-7.556-.407-2.449-1.003-4.334-3.342-6.715-.763-1.434 1.552-2.506 2.606-4.501 3.33-.27 1.405-.426 3.16-1.491 4.212-.825.815-1.725.38-2.823.548l-.289.414c1.302 2.782-.428 6.744-3.626 6.43-1.437.786-2.364 2.665-1.599 4.19l.587.26c1.046.12.856-.06 1.537.51.403.938.22 2.235.175 3.308l.763.082c2.546-.022 5.294-.73 7.156.358.493.857.312.828.304 1.986 2.503-.04 7.14-.817 9.11-.495l.037-4.872c1.712-.084 4.45-.58 5.461 1.026l.277.264c1.175.04 2.053-.325 3.626-.19.938.079 4.239.319 4.858.175l.099-.446c.651-2.935 2.651-2.171 5.221-1.928.004 1.378.02 2.754-.037 4.131 2.078-.574 2.277-.294 3.65 1.288l.327.034c4.558.508 10.042 3.328 14.273 1.252l.39-.639.17-.46c1.044-.886 3.71-.712 5.183-.736a27 27 0 0 0 .279 2.15c1.594.27 5.962-2.36 7.517-3.28m-44.65 68.257c-.272-1.726-.61-2.346-2.376-2.685.311 1.018 1.269 2.472 2.376 2.685"/><path fill="#05bd01" d="M268.399 48.022c3.286-.076 3.581-.048 4.85 3.064.955.694 1.776 1.048 2.16 2.375.551 1.894-2.676 3.544-4.047 2.835-1.17-.605-.678-3.336-2.343-3.384-2.997.256-5.028-1.761-2.948-4.617.31-.425 1.726-.298 2.328-.273"/><path fill="#fe0200" d="M269.02 52.912c-2.998.256-5.03-1.761-2.949-4.617.31-.425 1.726-.298 2.328-.273l-.083.346c-.291 1.195-.642 1.234-.575 2.597.443.96.597 1.108 1.278 1.947"/><path fill="#05bd01" d="M268.468 59.104c2.497-.194 6.676 1.665 6.279 4.785-.102.804-1.483 1.355-2.162 1.666-1.425-.253-1.8-.893-3.077-1.37-1.485-.556-3.114-.627-3.373-2.482.449-1.333 1.176-1.804 2.333-2.599"/><path fill="#05bd01" d="M155.15 35.486c1.547.322 3.356 1.405 2.38 3.274-1.062 2.031-2.7 2.535-4.723 3.17-.902-.252-2.038-.589-2.481-1.506a1.66 1.66 0 0 1-.045-1.364c.695-1.719 3.226-2.919 4.87-3.574"/><path fill="#05bd01" d="M233.954 34.023c4.83-.25 3.607 4.5.724 6.842-4.515-.36-3.666-4.526-.724-6.842"/><path fill="#05bd01" d="M146.202 40.203c4.468.34 3.196 4.205.669 6.288-4.507-.629-3.612-4.061-.669-6.288"/><path fill="#05bd01" d="M260.68 59.294q.27-.022.54-.034c2.08-.08 2.946.772 4.363 2.084-.66.882-1.46 1.716-2.206 2.533-3.561 1.378-5.687-1.819-2.697-4.583"/><path fill="#05bd01" d="M277.404 58.372c2.212-.172 2.826.771 4.133 2.369-.857 1.164-1.133 1.506-2.188 2.5-3.106 1.238-4.662-2.731-1.945-4.87"/><path fill="#05bd01" d="M200.31 51.515a2.54 2.54 0 0 1 2.494.688 2.535 2.535 0 0 1-1.32 4.247 2.536 2.536 0 0 1-1.174-4.935"/><path fill="#05bd01" d="M203.795 58.03a2.48 2.48 0 0 1 2.356.826 2.47 2.47 0 0 1 .439 2.456 2.478 2.478 0 0 1-4.766-.418 2.475 2.475 0 0 1 1.97-2.864"/><path fill="#05bd01" d="M159.478 35.624c3.388-.225 5.698.873 3.032 4.187-3.483.767-5.071-.988-3.032-4.187"/><path fill="#c8c8a0" d="M183.223 29.774c1.964.316 3.385.215 5.251.369 2.742 2.755 2.227 8.338.647 11.566-1.39 1.807-2.814 2.889-4.923 3.817-.817-.376-1.613-.721-2.394-1.168l-2.4.078c-.074-1.24-.375-3.965.15-5.033.15-.306.443-.27.89-.385.597-.085.585-.088 1.137-.336.98-1.166 1.207-1.827.22-3.096-2.154-2.005-2.613-4.614.768-5.418z"/><path fill="#05bd01" d="M180.444 39.018c1.027.021 3.19.007 4.107.202 2.557-.362 3.676-.215 4.57 2.489-1.39 1.807-2.814 2.889-4.923 3.817-.817-.376-1.613-.721-2.394-1.168l-2.4.078c-.074-1.24-.375-3.965.15-5.033.15-.306.443-.27.89-.385"/><path fill="#fe0200" d="M180.444 39.018c1.027.021 3.19.007 4.107.202-2.075 1.889-2.955 2.226-2.747 5.138l-2.4.078c-.074-1.24-.375-3.965.15-5.033.15-.306.443-.27.89-.385"/><path fill="#05bd01" d="M181.802 35.586c-2.155-2.005-2.614-4.614.767-5.418 3.866 1.975 2.328 5.624-.767 5.418"/><path fill="#05bd01" d="m204.796 41.267 4.939.14.045 3.037c.376.776.768 1.632 1.186 2.378-1.44 2.994 1.202 2.724-.091 6.661-1.352.202-2.993-.116-4.291-.536-1.865-.604-1.884-2.295-2.784-3.464-1.231.395-3.97 1.356-4.511-.808-.159-1.054-.05-3.04 1.338-3.193 1.673-.184 2.846.9 4.213 1.402-.19-1.595-.074-3.956-.044-5.617"/><path fill="#fe0200" d="m204.796 41.267 4.939.14.045 3.037c-3.396.18-2.518.659-4.94 2.44-.19-1.595-.074-3.956-.044-5.617"/><path fill="#05bd01" d="M184.469 20.572c.452 2.179.445 3.362 2.807 4.037l1.002.534c3.033.888 2.558 3.545.196 5-1.866-.154-3.287-.053-5.251-.369-1.789-2.043-1.458-2.817-.206-5.019-.52-2.13-.66-3.124 1.452-4.183"/><path fill="#fe0200" d="M184.469 20.572c.452 2.179.445 3.362 2.807 4.037l1.002.534c-1.832.556-2.75-.51-5.261-.388-.52-2.13-.66-3.124 1.452-4.183"/><path fill="#05bd01" d="M257.398 54.426c5.932-.532 2.037 7.914-.935 4.798-1.135-1.189-1.062-2.823-.27-4.3.524-.067.719-.241 1.205-.498"/><path fill="#05bd01" d="M0 0h466v.936C452.486.674 438.257.878 424.684.878l-91.68.093L130.268.894c3.094 1.912 4.835 2.576 5.713 6.292q.136.587.266 1.175c-1.373 3.396-1.593 1.606-.78 4.466.298 1.05-1.782 6.604-2.356 7.772-1.454 2.685-7.348 1.566-5.136-2.107.231-.51 1.132-1.454 1.416-2.178.56-1.426 1.072-3.414 1.649-4.793.78-1.87-.106-2.777-1.103-4.793-3.923-2.645-2.455-1.909-2.053-5.777-1.162-.24-9.056-.07-10.803-.078L89.786.663H32.538C22.034.662 10.417.424 0 .802z"/><path fill="#05bd01" d="M202.093 28.13c2.661-1.278 3.069-1.341 4.991 1.064.868.17 1.274-.46 1.89-1.065 2.698 1.62 4.445 2.093 7.13 3.435.834.417 2.443 2.954 3.234 3.797 1.295 1.38 4.27 2.594 4.795 4.294-.058.635-.25 1.292-.753 1.677-2.54 1.933-4.314-1.537-2.84 3.555 2.304-1.335 3.65-2.081 6.027-.32-.173 4.128-3.032 3.726-6.403 4.96-.09 1.951-.024 5.587-1.446 6.938-.412.393-.966.6-1.534.573-1.148-.055-2.131-1.306-2.597-2.254l-.571-.508c-1.282-1.147-1.446-1.051-3.141-.793 1.293-3.937-1.349-3.667.091-6.661 2.427 1.473 3.002-.119 2.933-2.28 1.623-3.256 2.71-3.407 6.161-3.59a104 104 0 0 0-3.613-2.19l-.947-2.194c-2.44-.934-3.851-1.87-6.133-2.97-3.486 1.928-4.758 2.713-6.6-1.77-.626-1.523-.763-1.999-.674-3.697"/><path fill="#c8c8a0" d="M210.966 46.822c2.427 1.473 3.002-.119 2.933-2.28l.052.232c.21 1.47 1.054 1.905 2.029 2.873l-.126.357c-.035.057-.403.536-.432.564-1.387 1.374.237 3.633-.6 5.397.03-.064-.25.866-.235.82l-.571-.509c-1.282-1.147-1.446-1.051-3.141-.793 1.293-3.937-1.349-3.667.091-6.661"/><path fill="#05bd01" d="M170.695 18.821c2.91-1.89 6.255-4.068 9.872-4.089.169 0 1.699.56 2.032.667.638-1.374.755-4.258 3.272-3.706 1.213.856 1 1.953 2.018 2.646 3.716-1.206 5.303.889 6.923 4.07l-.921 2.996 1.017 2.016c-3.673 4.56-3.895-.641-7.632 1.188-2.362-.675-2.355-1.858-2.807-4.037 1.157-.706 2.041-1.302 3.323-1.759.723.732 1.387 1.563 2.315 1.918l.282-.155c-.168-1.143-1.696-2.87-2.63-3.464-1.675-1.067-1.785.546-4.143-.513l-.435.112c-.515 1.329-.057 1.352-.829 2.269-2.876 1.022-5.52 2.087-8.248 3.455-.344.172-1.244-.16-1.624-.29-1.36.494-1.366 1.52-3.018 1.36-1.573-.154-3.045-.769-4.574-1.017-.845-2.743-.879-2.911 1.124-4.963z"/><path fill="#05bd01" d="M252.339 46.49c.321-1.336.473-2.7 1.797-3.422 1.912-1.042 3.206.97 3.84 2.48.864-.108 1-.15 1.843-.016 2.61-.204 4.113.133 4.26 3.114-1.097 1.146-1.721 1.78-3.353 1.936-1.283 1.414-1.767 2.382-3.328 3.844-.486.257-.681.431-1.205.497l-.72-.183c-3.13 2.969-5.509 1.257-4.909-2.902.67-.495.968-.952 1.492-1.608.025-.902.115-1.88.18-2.786.121-.483.09-.445.103-.954"/><path fill="#05bd01" d="M252.056 50.23c.89-.015 1.868-.056 2.75-.004 1.875 1.96.695 2.504.668 4.514-3.13 2.969-5.51 1.257-4.91-2.902.67-.495.968-.952 1.492-1.608"/><path fill="#05bd01" d="M259.819 45.532c2.61-.204 4.113.133 4.26 3.114-1.097 1.146-1.721 1.78-3.353 1.936-.13-.081-.665-.297-.827-.366-.56-.824-.998-1.62-1.49-2.482.394-.684.972-1.523 1.41-2.202"/><path fill="#c8c8a0" d="M255.248 50.078c1.636.274 3.002.548 4.65.138.163.07.699.285.828.366-1.283 1.414-1.767 2.382-3.328 3.844-.486.257-.681.431-1.205.497l-.72-.183c.028-2.01 1.208-2.554-.668-4.514z"/><path fill="#fe0200" d="M257.976 45.548c.864-.108 1-.15 1.843-.016-.438.68-1.016 1.518-1.41 2.202.492.862.93 1.658 1.49 2.482-1.649.41-3.015.136-4.651-.138-.119-.51-.072-.884-.053-1.402 1.208-.868 2.005-1.883 2.78-3.128"/><path fill="#c8c8a0" d="m252.339 46.49 2.856 2.186c-.02.518-.066.893.053 1.402l-.443.148c-.88-.052-1.859-.011-2.75.004.026-.902.116-1.88.18-2.786.122-.483.091-.445.104-.954"/><path fill="#fe0200" d="M431.394 114.45c1.15.061 2.107.098 3.252.287l-.047 3.419c2.89.2 7.472.082 9.841 1.531.523.32 1.521 1.583 2.143 2.154.173 1.652.268 2.848.294 4.504-.692.018-2.948.098-3.424-.094-4.791-1.927-3.832-3.36-9.335-2.698l.055-3.693c-1.724-.025-2.873 0-4.587.143-.01-1.694-.327-3.44.16-4.95.616-.658.495-.448 1.648-.604"/><path fill="#05bd01" d="M135.649 42.866c-.205-.556-.664-1.721-.658-2.266.033-3.3 2.53-5.732 5.255-2.78.527 4.634 1.146 7.741-3.47 10.824-.662 2.867-.902 4.644-4.428 3.24-.558-.846-1.045-1.687-1.559-2.56 3.28-3.142 2.44-3.343 4.86-6.458"/><path fill="#05bd01" d="m309.464 60.21.87 1.18c1.117.292 5.467-1.908 6.455-1.115 5.245 4.216-7.171 8.205-10.82 6.277-3.455-1.826-1.383-5.855 1.202-6.741z"/><path fill="#05bd01" d="M123.84 51.777c2.111-.864 3.673-1.149 5.885-1.64l2.11 1.964c-.126 2.973-3.209 3.972-5.767 4.062-1.258.044-1.437-1.341-2.901-1.502-.532.302-.683.768-.976 1.326-1.278.731-2.15.19-3.48-.24l-3.07 1.196c-.44-.295-1.179-.823-1.624-1.031-.305-1.183-.51-2.707.287-3.721.782-.342 1.868.019 2.882.044 1.312.033 4.128-.47 5.196-.2.562.8.808 2.254 1.055 3.258z"/><path fill="#05bd01" d="M222.188 24.572c4.601 1.827 1.691 3.582 5.982 5.049 3.633.619 3.185 1.155 3.262 4.707-.637 2.315-2.534 3.68-4.949 2.99-.355-1.737-.963-3.428-2.24-4.675-.596-2.693-.983-2.59-3.448-3.419l-.488-.394c-.158-2.167.418-2.81 1.881-4.258"/><path fill="#fe0200" d="M228.17 29.62c3.633.62 3.185 1.156 3.262 4.708-1.436-.816-2.799-3.192-3.262-4.707"/><path fill="#fe0200" d="M306.746 54.822c4.48-.023 7.124-1.816 12.106-2.175-.022 1.346 0 2.74.001 4.09-.91.778-1.832 1.444-2.672 2.285-1.963.348-4.835.76-6.717 1.188l-2.293-.4c-.09-.633-.266-1.204-.436-1.82.123-1.098.052-2.068.011-3.168"/><path fill="#fe0200" d="M278.72 49.627c2.019.487 7.676 1.22 9.818 1.317l-.025 5.33-2.09-.262c-1.433.32-1.703 2.503-3.402 2.777l-.234-.346c-.064-1.223.129-1.8.39-2.984-1.902-.198-2.734-.234-4.638-.15-.062-1.64-.231-4.132.182-5.682"/><path fill="#c8c8a0" d="M283.178 55.46c1.274.417 1.935.436 3.245.552-1.433.32-1.703 2.503-3.402 2.777l-.234-.346c-.064-1.223.129-1.8.39-2.984"/><path fill="#ff4d53" d="m283.395 51.721.367.342c.24.783-.009 1.75-.138 2.59l-.444-.287c-.209-.98.019-1.654.215-2.645"/><path fill="#05bd01" d="M96.194 16.456c.907.295 1.523.596 2.38.994.853 2.583-.547 3.63-2.434 5.228.36 2.622.75 5.199-2.704 5.508q-.327.028-.655.046c-2.446-2.902-1.943-5.856-.257-9.032 1.087-2.05 1.589-2.143 3.67-2.744"/><path fill="#05bd01" d="M156.65 26.898c-2.142.213-3.379-.017-4.33-2.237a4.75 4.75 0 0 1 .052-3.834c1.892-4.202 11.728-4.8 7.742.692l-.178.24c-1.023.171-1.358.055-2.06.663-.755 2.15.15 2.298-1.225 4.476"/><path fill="#05bd01" d="M207.426 16.303c4.743-.749 4.382 4.674 8.338 7.235.459 1.211.46 1.778-.009 2.983-1.273 1.406-3.598.193-4.637-.889-1.862-1.938-6.097-6.715-3.692-9.329"/><path fill="#05bd01" d="M100.924 53.085c.051-1.201.087-1.96.973-2.788 1.17-.427 2.154-.303 3.249-.629 1.786-.533 2.24-1.478 4.21-.927.493.464.777.722.782 1.518.014 2.125-1.737 6.186-4.294 6.157-.258-.002-1.312-.39-1.621-.502-.579-.906-2.397-2.156-3.299-2.829"/><path fill="#05bd01" d="M207.724 9.27c-2.367-6.96 9.95-2.13 9.082 1.626-.82 1.191-2.181 1.506-3.546 1.569-.5-.271-.504-.241-1.078-.32-.62.405-1.144.813-1.823.364-.484-1.922-.996-1.973-2.635-3.239"/><path fill="#05bd01" d="M291.276 80.007c1.608-.044 2.489-.049 4.08.105.696 1.346 1.35 2.365.967 3.904-1.299 1.665-2.901.905-4.472 1.061-.894.09-2.453 3.534-3.969 1.793-1.31-1.504-1.716-2.452-.882-4.183 2.25-1.085 2.085-.047 3.891-.313.5-.74.348-1.35.385-2.367"/><path fill="#05bd01" d="M149.978 27.229c1.724 1.008 2.258 1.211 3.216 3.014-1.339 3.115-2.224 2.632-5.116 1.924-1.294 1.53-1.608 2.32-3.71 2.355-1.041-1.067-2.642-3.374-1.104-4.695.988-.85 2.609-.375 3.79-.173 1.051-.7 1.977-1.584 2.924-2.425"/><path fill="#05bd01" d="M204.707 16.206c-1.682-.143-3.07.465-4.454-1.07-.534-1.476.243-2.63 1.41-3.45.332-.724-.233-1.39-.434-2.244-.914-3.884 4.55-3.415 4.857-.327-1.73 3.645-1.016 3.378-1.38 7.091"/><path fill="#05bd01" d="m118.61 16.792.388.127c3.661 1.182 5.601-.214 7.001 2.31-.721 4.597-6.136 3.708-8.775 1.127-.59-.575-.298-1.477-.143-2.222.581-.716.758-.8 1.53-1.342"/><path fill="#05bd01" d="M107.235 58.285c.253-3.358 3.893-5.095 6.507-2.39.17 1.42.148 1.688-.003 3.093-1.5.555-2.534 1.046-3.979 1.752l-1.765-1.288z"/><path fill="#fe0200" d="m294.802 50.886 5.39-.005c-.084 1.72-.037 3.558-.024 5.288l-2.594.215-2.46-.089c-.266-1.859-.27-3.54-.312-5.409"/><path fill="#fe0200" d="M274.929 42.936c1.962-.252 3.037-.233 5.038-.197-.047 1.722-.042 3.773-.304 5.447-1.343-.112-2.845-.298-4.175-.179l-.687-.009c-.08-2.033-.144-3.063.128-5.062"/><path fill="#fe0200" d="M127.37 216.3c2.44-.14 4.652-.873 5.357 1.86-.034 1.087-.105 2.287-.047 3.364-1.668-.001-3.895.243-5.119-.79l-.367-.874c.289-1.023.187-2.458.176-3.56"/><path fill="#fe0200" d="m322.204 53.137 5.272.035c-.008 1.574-.064 3.448.04 4.99-1.342.018-3.723.124-4.986.027-.316-.699-.362-1.576-.459-2.352z"/><path fill="#fe0200" d="M435.116 139.975c2.013-.043 3.508-.08 5.524.086-.016 1.294-.02 3.47-.252 4.738q-2.566.042-5.129.178c-.027-1.657-.093-3.342-.143-5.002"/><path fill="#fe0200" d="M270.197 34.052c.986-.756 4.153-.469 5.606-.438-.062 1.733-.106 3.189-.328 4.903-1.453.002-3.603.073-5-.015-.154-1.207-.206-3.188-.278-4.45"/><path fill="#fe0200" d="M246.607 47.238c1.395-.18 4.796-1.027 5.628.206-.064.907-.154 1.884-.18 2.786-.523.656-.822 1.113-1.49 1.608q-.423.02-.845.028c-3.625.062-3.106-1.63-3.113-4.628"/><path fill="#fe0200" d="M53.953 148.25c1.88-.173 3.322-.145 5.197-.116-.05 1.681-.076 3.055.003 4.732-1.143-.016-2.298-.075-3.425.08-2.552-.706-2.233-2.385-1.775-4.696"/><path fill="#fe0200" d="M92.497 72.986c-.005-1.03-.103-2.18.222-3.127 1.048-.895 3.847-.6 4.748.414a72 72 0 0 0-.032 4.272c-1.36.004-3.31.213-4.53-.184-.518-.577-.354-.4-.408-1.375"/><path fill="#fe0200" d="m136.431 212.411 5.346.038c-.074 1.363-.11 2.335-.063 3.699-1.14 1.634-3.064 1.015-4.877 1.302-.398-1.628-.374-3.364-.406-5.039"/><path fill="#fe0200" d="M321.493 69.42c-.74-3.163-.93-5.213 2.903-5.078.451.1 1.161.15 1.367.451.75 1.101.286 3.23.367 4.762-1.195-.055-3.54-.226-4.637-.135"/><path fill="#05bd01" d="M442.897 139.95c-5.052-3.918 2.023-7.552 3.68-3.435-.128 1.125-.23 2.318-.472 3.418-1.009.015-2.218.067-3.208.016"/><path fill="#fe0200" d="M303.998 80.309c1.884-.302 2.815-.317 4.743-.33l-.045 2.855-.024 2.164-4.654.014c-.053-1.497-.018-3.19-.02-4.703"/><path fill="#fe0200" d="M216.568 23.842c1.694-.428 4.118-.17 5.62.73-1.463 1.448-2.039 2.09-1.881 4.258-1.08.06-2.566.024-3.678.031-.11-1.637-.07-3.37-.061-5.019"/><path fill="#05bd01" d="M221.975 20.29c3.063-4.102 6.455-1.703 4.66 2.572-2.936 1.119-3.779.125-4.66-2.571"/><path fill="#05bd01" d="M239.273 37.775c1.03-1.06 3.192-3.123 4.673-1.15 1.24 1.652.21 2.737-.158 4.132-2.66.585-4.09-.263-4.515-2.982"/><path fill="#05bd01" d="M243.946 41.13c1.109-1.05 3.164-1.828 4.068-.34 1.597 2.631-.492 6.47-3.609 3.535-.623-1.061-.54-2.01-.459-3.195"/><path fill="#05bd01" d="M197.358 25.661c2.774-3.402 6.192-1.43 4.735 2.47-2.772 1.51-4.349.85-4.735-2.47"/><path fill="#05bd01" d="M121.13 61.029c2.434-2.956 5.317-2.61 5.515 1.395-1.388.91-2.502 1.877-4.204 1.31-.976-.798-1.165-1.465-1.311-2.705"/><path fill="#05bd01" d="M226.392 39.359c1.08-.039 2.18-.077 3.035.72.532.498.836 1.192.843 1.92.001 2.119-1.867 2.669-3.65 2.174l-1.693-2.171c.474-1.081.849-1.66 1.465-2.643"/><path fill="#05bd01" d="M416.92 158.552c-2.387-3.59 1.62-6.882 4.743-1.9-1.404 2.05-2.29 2.694-4.742 1.9"/><path fill="#05bd01" d="M89.736 41.396c3.057.604 3.606 1.71 2.444 4.611-3.687 1.666-6.343-2.098-2.444-4.611"/><path fill="#05bd01" d="M227.348 23.274c1.974-4.831 6.244-3.02 5.075 1.07-2.385 1.829-3.322.95-5.075-1.07"/><path fill="#05bd01" d="M107.192 17.979a2.489 2.489 0 0 1 4.742.238 2.485 2.485 0 0 1-1.055 2.71c-.9.583-2.073.524-2.909-.145a2.48 2.48 0 0 1-.778-2.803"/><path fill="#05bd01" d="M344.167 267.761c-.353-.181-.806-.414-1.127-.638a2.62 2.62 0 0 1-1.123-1.837c-.169-1.443.858-2.53 2.27-2.61 1.166-.068 1.74.547 2.572 1.244.102 2.513-.239 2.91-2.592 3.841"/><path fill="#05bd01" d="M277.462 80.595c1.788-1.475 4.116-2.306 4.827.665-.699 4.837-4.751 3.744-4.827-.665"/><path fill="#05bd01" d="M350.14 258.254c-4.711-1.393 1.13-8.588 3.376-2.584-.935 1.836-1.182 2.433-3.375 2.584"/><path fill="#05bd01" d="M390.443 93.26c-4.79 4.645-7.915-4.417-.621-3.047.715 1.228.733 1.625.621 3.047"/><path fill="#05bd01" d="M93.106 49.802c3.341.352 3.366.594 3.35 3.953-3.292 2.186-6.685-1.194-3.35-3.953"/><path fill="#fe0200" d="M162.139 22.291c-.271-1.622-.988-3.744.375-4.943.975-.398 2.506-.097 3.498.177-2.003 2.052-1.97 2.22-1.124 4.963-.923-.121-1.819-.15-2.75-.197"/><path fill="#fe0200" d="M220.795 29.224c2.465.829 2.852.726 3.447 3.42-.844.122-2.467.066-3.378.062a67 67 0 0 0-.07-3.482"/><path fill="#fe0200" d="M284.968 24.683c1.046.12.856-.058 1.537.511.403.938.22 2.235.175 3.308l.763.082c-.706.89-.737 3.647-.333 4.658l-.823.407c-.289 1.538-.406 2.528-.538 4.091-1.705-.042-3.523.002-5.237.013-.007-4.215.942-8.723.94-13.055 1.444.091 2.073.15 3.516-.015"/><path fill="#ff4d53" d="m286.68 28.502.763.082c-.706.89-.737 3.647-.333 4.658l-.823.407c-.288-1.942-.106-3.284.393-5.147"/><path fill="#fe0200" d="M287.443 28.584c2.546-.022 5.294-.73 7.156.358.493.857.312.828.304 1.986-.235 2.899-1.52 2.592-2.112 5.467l-4.593-.137c-.204-1.149-.235-2.22-1.088-3.016-.404-1.01-.373-3.767.333-4.658"/><path fill="#05bd01" d="M285.98 20.234a24 24 0 0 1-.692-1.086c-2.015-3.398-.049-6.589 4.318-5.344 1.302 2.782-.428 6.744-3.626 6.43"/><path fill="#fe0200" d="M304.05 25.561c1.712-.084 4.45-.58 5.461 1.026-.103 1.635-.132 2.717-.079 4.352-1.227-.015-4.57.068-5.42-.506z"/><path fill="#fe0200" d="m342.195 30.528.17-.46c1.044-.886 3.71-.712 5.183-.736a79 79 0 0 0-.14 5.217l-5.183.004z"/><path fill="#fe0200" d="M318.37 26.39c.652-2.935 2.652-2.171 5.222-1.928.004 1.378.02 2.754-.037 4.131-.905.972-3.449.943-4.417.015-.687-.658-.65-1.361-.767-2.218"/><path fill="#05bd01" d="M319.045 89.673a2.523 2.523 0 0 1 3.358 1.212 2.517 2.517 0 0 1-1.224 3.35 2.523 2.523 0 0 1-3.345-1.22 2.516 2.516 0 0 1 1.211-3.342"/><path fill="#c8c8a0" d="M391.716 313.446c-.034-4.265-.264-5.054 2.741-8.447.715 1.399 3.16 5.346 3.517 6.354 1.438 4.05 1.958 8.342 3.293 12.664-.92 3.496-.936 3.71-4.373 2.576.497 1.48 1.7 4.295 1.163 5.87-.22.642-1.662.186-1.917 1.093-.482 1.71-.001 3.44-.7 5.164-1.158 3.564-2.32 7.165-3.531 10.71-2.689 7.879-4.71 16.26-8.293 23.768-.72 1.507-7.719 3.726-9.492 4.208-8.208-2.111-8.59-4.931-9.857-12.133-.757-4.305-2.292-4.017-1.206-9.28.114-2.092.494-2.47 2.302-3.502 6.008-4.868 1.234-11.435.84-17.66 2.087-3.71 1.831-3.045 2.677-6.955 5.633-1.519 18.272-5.01 18.033-12.595l-.012-.338c1.091-2.323 2.716-1.95 4.815-1.497"/><path fill="#05bd01" d="M365.363 352.49c2.393.534 4.422 2.587 1.705 4.719-1.234.968-2.921-.337-4.007-1.216.114-2.092.494-2.47 2.302-3.502"/><path fill="#05bd01" d="M378.913 361.17a2.51 2.51 0 0 1 2.512.432 2.503 2.503 0 0 1-.864 4.298 2.504 2.504 0 0 1-1.647-4.73"/><path fill="#05bd01" d="M45.976 93.393c2.42-.34 2.187.327 3.519 1.935 3.199-.744 3.224-.889 6.452-.734l1.814 1.59c1.288.175 3.728.317 3.999 1.775.495 2.665-2.252 3.58-4.279 2.595l-1.326-1.424c-2.705.7-7.562 2.393-9.905 3.79-1.206-.464-1.965-.639-2.504-1.789-.014-.961 1.012-1.937 1.39-2.964.647-1.753-.522-1.702-.466-3.213.36-.873.54-.937 1.306-1.561"/><path fill="#05bd01" d="M68.07 91.791c5.833-.293 3.008 5.107.243 7.322q-.545.109-1.099.15c-1.574.129-2.654-.714-2.418-2.398.311-2.226 1.568-3.711 3.274-5.074"/><path fill="#05bd01" d="M424.895 349.505c3.676-.177 5.638-.754 4.112 4.558-.178.618-.774.734-1.32.933a55 55 0 0 1-5.049-.784c-.099-1.375-.393-2.7.184-3.867.619-.658 1.133-.644 2.073-.84"/><path fill="#fe0200" d="M17.244 154.66q2.749.08 5.497.044c-.1 2.948.092 5.145-1.234 7.777-.63-.08-1.047-.133-1.354-.694l.956-1.062-.18-.322c-1.025-.446-2.453-.413-3.613-.478z"/><path fill="#05bd01" d="M435.992 345.8c4.005-.092 5.79 3.654 2.33 6.713-2.783.146-5.769-3.9-2.33-6.713"/><path fill="#fe0200" d="M370.39 307.344c1.705.087 3.701.06 5.43.08l.033 5.216-5.212.014c-.227-1.525-.214-3.721-.251-5.31"/><path fill="#fe0200" d="m424.138 264.724 4.5.035-.014 5.113c-1.254.093-3.152.058-4.456.073-.042-1.705-.02-3.507-.03-5.221"/><path fill="#05bd01" d="M63.446 282.46c3.821-.124 5.446 3.104 2.671 4.772-1.707.038-3.118.218-4.18-1.393-.834-1.266.433-2.775 1.509-3.38"/><path fill="#05bd01" d="M5.168 46.661a2.54 2.54 0 0 1 2.534.387 2.53 2.53 0 0 1-.756 4.353 2.536 2.536 0 0 1-3.215-1.5 2.53 2.53 0 0 1 1.437-3.24"/><path fill="#05bd01" d="M108.845 323.904a2.509 2.509 0 1 1 1.16 4.882 2.509 2.509 0 0 1-1.16-4.882"/><path fill="#c8c8a0" d="M415.2 178.4c1.625-.084 5.425-.397 6.221 1.188-.207.713-.346.72-.942 1.17-2.372.94-5.851 1.392-5.279-2.359"/><path fill="#c8c8a0" d="m185.867 224.274.164.357c-.11 2-.666 3.603-3.012 3.505-.586-.962-.575-.639-.553-1.614.666-1.129 2.157-1.637 3.4-2.248"/><path fill="#c8c8a0" d="M15.578 164.69c1.608.69 2.585.613 3.75 1.243v.442l-.913.882c-.661.444-.674.518-1.483.616-1.37-.576-1.491-1.813-1.354-3.183"/><path fill="#c8c8a0" d="M8.998 154.867c.396.036.448.08.832.196.706.978.806 1.374.629 2.537-.501.652-.176.452-1.04.566-1.024-.652-1.699-.864-1.803-2.115.345-.702.693-.8 1.382-1.184"/><path fill="#c8c8a0" d="M355.545 155.694c1.304.504 2.843 2.389 2.733 3.84-2.871-.253-3.12-1.242-2.733-3.84"/><path fill="#c8c8a0" d="M342.55 274.095c1.474.683 2.092 2.627 1.108 3.876-1.634-1.54-2.482-1.79-1.108-3.876"/><path fill="#c8c8a0" d="M173.545 241.674c.608.326.563.302.912.902.115 1.254-.408 1.72-1.19 2.684-1.577-1.444-1.025-2.292.278-3.586"/><path fill="#c8c8a0" d="M363.091 303.04c1.209.853 1.858 2.428 1.72 3.887-2.11-.944-2.638-1.66-1.72-3.887"/><path fill="#c8c8a0" d="M344.47 269.306c2.104.413 1.552 2.245.933 3.704-.481.012-.307.011-.794-.22-.646-1.132-.33-2.188-.139-3.484"/><path fill="#c8c8a0" d="M50.072 74.011c.985.154 1.666.214 2.408.833.354.826.287.395.114 1.349-1.01.002-1.772-.145-2.538-.778-.346-.891-.324-.44.016-1.404"/><path fill="#c8c8a0" d="M400.395 108.237c.727.047.825-.007 1.446.386.173.89-.138 1.255-.484 2.209l-.49.14-.351-.285c-.3-.94-.188-1.476-.121-2.45"/></svg>